<?xml version="1.0" encoding="UTF-8" standalone="no"?>
<svg
   version="1.1"
   width="41.998900cm"
   height="29.700220cm"
   viewBox="0 0 419989000 297002200"
   id="svg30693"
   sodipodi:docname="Inky75-F_Silkscreen.svg"
   inkscape:version="1.2.2 (b0a8486, 2022-12-01)"
   xmlns:inkscape="http://www.inkscape.org/namespaces/inkscape"
   xmlns:sodipodi="http://sodipodi.sourceforge.net/DTD/sodipodi-0.dtd"
   xmlns="http://www.w3.org/2000/svg"
   xmlns:svg="http://www.w3.org/2000/svg"
   xmlns:rdf="http://www.w3.org/1999/02/22-rdf-syntax-ns#"
   xmlns:cc="http://creativecommons.org/ns#"
   xmlns:dc="http://purl.org/dc/elements/1.1/">
  <defs
     id="defs30697" />
  <sodipodi:namedview
     id="namedview30695"
     pagecolor="#ffffff"
     bordercolor="#666666"
     borderopacity="1.0"
     inkscape:showpageshadow="2"
     inkscape:pageopacity="0.0"
     inkscape:pagecheckerboard="0"
     inkscape:deskcolor="#d1d1d1"
     inkscape:document-units="cm"
     showgrid="false"
     inkscape:zoom="8.087294"
     inkscape:cx="474.69524"
     inkscape:cy="295.7726"
     inkscape:window-width="1920"
     inkscape:window-height="1010"
     inkscape:window-x="1920"
     inkscape:window-y="24"
     inkscape:window-maximized="0"
     inkscape:current-layer="svg30693"
     showguides="true">
    <sodipodi:guide
       position="1.1327414e+08,2.1771633e+08"
       orientation="0,-1"
       id="guide4975"
       inkscape:locked="false" />
    <sodipodi:guide
       position="1.0575966e+08,2.1771633e+08"
       orientation="1,0"
       id="guide4977"
       inkscape:locked="false" />
    <sodipodi:guide
       position="1.0575966e+08,2.2513003e+08"
       orientation="0,-1"
       id="guide4981"
       inkscape:locked="false" />
    <sodipodi:guide
       position="1.1327414e+08,2.2513003e+08"
       orientation="1,0"
       id="guide4985"
       inkscape:locked="false" />
    <sodipodi:guide
       position="1.2068783e+08,2.2142322e+08"
       orientation="1,0"
       id="guide19431"
       inkscape:locked="false" />
    <sodipodi:guide
       position="1.2820229e+08,2.2142322e+08"
       orientation="1,0"
       id="guide22337"
       inkscape:locked="false" />
    <sodipodi:guide
       position="1.3561599e+08,2.2142322e+08"
       orientation="1,0"
       id="guide3846"
       inkscape:locked="false" />
    <sodipodi:guide
       position="1.4313047e+08,2.2142325e+08"
       orientation="1,0"
       id="guide3848"
       inkscape:locked="false" />
    <sodipodi:guide
       position="1.5054417e+08,2.2142325e+08"
       orientation="1,0"
       id="guide3850"
       inkscape:locked="false" />
    <sodipodi:guide
       position="1.5805863e+08,2.2142327e+08"
       orientation="1,0"
       id="guide3852"
       inkscape:locked="false" />
    <sodipodi:guide
       position="1.6547233e+08,2.2142327e+08"
       orientation="1,0"
       id="guide3854"
       inkscape:locked="false" />
    <sodipodi:guide
       position="1.7298679e+08,2.2142328e+08"
       orientation="1,0"
       id="guide3856"
       inkscape:locked="false" />
    <sodipodi:guide
       position="1.8040049e+08,2.2142328e+08"
       orientation="1,0"
       id="guide3858"
       inkscape:locked="false" />
    <sodipodi:guide
       position="1.8791498e+08,2.214233e+08"
       orientation="1,0"
       id="guide3860"
       inkscape:locked="false" />
    <sodipodi:guide
       position="1.9532869e+08,2.2142329e+08"
       orientation="1,0"
       id="guide3862"
       inkscape:locked="false" />
    <sodipodi:guide
       position="2.0284317e+08,2.2143311e+08"
       orientation="1,0"
       id="guide3864"
       inkscape:locked="false" />
    <sodipodi:guide
       position="2.1025687e+08,2.2143311e+08"
       orientation="1,0"
       id="guide3866"
       inkscape:locked="false" />
    <sodipodi:guide
       position="2.1777133e+08,2.2143313e+08"
       orientation="1,0"
       id="guide3868"
       inkscape:locked="false" />
    <sodipodi:guide
       position="2.2518503e+08,2.2143313e+08"
       orientation="1,0"
       id="guide3870"
       inkscape:locked="false" />
    <sodipodi:guide
       position="2.3269951e+08,2.2143315e+08"
       orientation="1,0"
       id="guide3872"
       inkscape:locked="false" />
    <sodipodi:guide
       position="2.401132e+08,2.2143315e+08"
       orientation="1,0"
       id="guide3874"
       inkscape:locked="false" />
    <sodipodi:guide
       position="2.4762767e+08,2.2143316e+08"
       orientation="1,0"
       id="guide3876"
       inkscape:locked="false" />
    <sodipodi:guide
       position="2.5504136e+08,2.2143316e+08"
       orientation="1,0"
       id="guide3878"
       inkscape:locked="false" />
    <sodipodi:guide
       position="2.6255582e+08,2.2143318e+08"
       orientation="1,0"
       id="guide3880"
       inkscape:locked="false" />
    <sodipodi:guide
       position="2.6996952e+08,2.2143318e+08"
       orientation="1,0"
       id="guide3882"
       inkscape:locked="false" />
    <sodipodi:guide
       position="2.7748405e+08,2.2143319e+08"
       orientation="1,0"
       id="guide3884"
       inkscape:locked="false" />
    <sodipodi:guide
       position="2.8489775e+08,2.2143319e+08"
       orientation="1,0"
       id="guide3886"
       inkscape:locked="false" />
    <sodipodi:guide
       position="2.9241221e+08,2.2143323e+08"
       orientation="1,0"
       id="guide3888"
       inkscape:locked="false" />
    <sodipodi:guide
       position="2.9982591e+08,2.2143323e+08"
       orientation="1,0"
       id="guide3890"
       inkscape:locked="false" />
    <sodipodi:guide
       position="3.0734037e+08,2.2143324e+08"
       orientation="1,0"
       id="guide3892"
       inkscape:locked="false" />
    <sodipodi:guide
       position="3.1475406e+08,2.2143324e+08"
       orientation="1,0"
       id="guide3894"
       inkscape:locked="false" />
    <sodipodi:guide
       position="3.2968226e+08,2.2143326e+08"
       orientation="1,0"
       id="guide3896"
       inkscape:locked="false" />
    <sodipodi:guide
       position="3.2226857e+08,2.2143325e+08"
       orientation="1,0"
       id="guide3898"
       inkscape:locked="false" />
    <sodipodi:guide
       position="90801848,1.7809536e+08"
       orientation="0,-1"
       id="guide4786"
       inkscape:locked="false" />
    <sodipodi:guide
       position="81561628,1.6054316e+08"
       orientation="0,-1"
       id="guide4788"
       inkscape:locked="false" />
    <sodipodi:guide
       position="81561628,1.6900241e+08"
       orientation="1,0"
       id="guide4792"
       inkscape:locked="false" />
    <sodipodi:guide
       position="73102376,1.6900241e+08"
       orientation="0,-1"
       id="guide4794"
       inkscape:locked="false" />
    <sodipodi:guide
       position="73102376,1.6900241e+08"
       orientation="1,0"
       id="guide4796"
       inkscape:locked="false" />
  </sodipodi:namedview>
  <title
     id="title16629">SVG Picture created as Inky75-F_Silkscreen.svg date 2023/01/31 23:03:54 </title>
  <desc
     id="desc16631">Picture generated by PCBNEW </desc>
  <circle
     cx="116980984"
     cy="75578992"
     r="3706849.5"
     fill="#fccc0a"
     id="circle4989"
     style="fill:#000000;fill-opacity:1;stroke-width:0;stroke-dasharray:none" />
  <circle
     cx="131909144"
     cy="75578976"
     r="3706849.5"
     fill="#fccc0a"
     id="circle4989-3"
     style="fill:#000000;fill-opacity:1;stroke-width:0;stroke-dasharray:none" />
  <circle
     cx="146837328"
     cy="75578960"
     r="3706849.5"
     fill="#fccc0a"
     id="circle4989-3-4"
     style="fill:#000000;fill-opacity:1;stroke-width:0;stroke-dasharray:none" />
  <circle
     cx="161765488"
     cy="75578944"
     r="3706849.5"
     fill="#fccc0a"
     id="circle4989-9"
     style="fill:#000000;fill-opacity:1;stroke-width:74137.2" />
  <circle
     cx="176693648"
     cy="75578928"
     r="3706849.5"
     fill="#fccc0a"
     id="circle4989-3-3"
     style="fill:#000000;fill-opacity:1;stroke-width:0;stroke-dasharray:none" />
  <circle
     cx="191621840"
     cy="75578912"
     r="3706849.5"
     fill="#fccc0a"
     id="circle4989-3-4-7"
     style="fill:#000000;fill-opacity:1;stroke-width:0;stroke-dasharray:none" />
  <circle
     cx="296119072"
     cy="75568984"
     r="3706849.5"
     fill="#fccc0a"
     id="circle4989-93"
     style="fill:#000000;fill-opacity:1;stroke-width:0;stroke-dasharray:none" />
  <circle
     cx="311047232"
     cy="75568968"
     r="3706849.5"
     fill="#fccc0a"
     id="circle4989-3-73"
     style="fill:#000000;fill-opacity:1;stroke-width:0;stroke-dasharray:none" />
  <circle
     cx="325975424"
     cy="75568952"
     r="3706849.5"
     fill="#fccc0a"
     id="circle4989-3-4-6"
     style="fill:#000000;fill-opacity:1;stroke-width:0;stroke-dasharray:none" />
  <circle
     cx="206550032"
     cy="75569096"
     r="3706849.5"
     fill="#fccc0a"
     id="circle4989-5"
     style="fill:#000000;fill-opacity:1;stroke-width:0;stroke-dasharray:none" />
  <circle
     cx="221478192"
     cy="75569080"
     r="3706849.5"
     fill="#fccc0a"
     id="circle4989-3-7"
     style="fill:#000000;fill-opacity:1;stroke-width:0;stroke-dasharray:none" />
  <circle
     cx="236406368"
     cy="75569064"
     r="3706849.5"
     fill="#fccc0a"
     id="circle4989-3-4-0"
     style="fill:#000000;fill-opacity:1;stroke-width:0;stroke-dasharray:none" />
  <circle
     cx="251334528"
     cy="75569048"
     r="3706849.5"
     fill="#fccc0a"
     id="circle4989-9-2"
     style="fill:#000000;fill-opacity:1;stroke-width:0;stroke-dasharray:none" />
  <circle
     cx="266262688"
     cy="75569032"
     r="3706849.5"
     fill="#fccc0a"
     id="circle4989-3-3-4"
     style="fill:#000000;fill-opacity:1;stroke-width:0;stroke-dasharray:none" />
  <circle
     cx="281190912"
     cy="75569016"
     r="3706849.5"
     fill="#fccc0a"
     id="circle4989-3-4-7-5"
     style="fill:#000000;fill-opacity:1;stroke-width:0;stroke-dasharray:none" />
  <rect
     height="5242331"
     width="5242223.5"
     y="56925204"
     x="977983.69"
     fill="#b933ad"
     id="rect10919"
     style="stroke-width:107199"
     transform="rotate(-45)" />
  <path
     style="fill:#000000;fill-opacity:1;stroke:#000000;stroke-width:0;stroke-linecap:butt;stroke-linejoin:miter;stroke-dasharray:none;stroke-opacity:1"
     d="m 111747490,77142578 10480,2143289 h -5998310 v -5964886 l 2224100,529 -250,2291213 3740530,-3740526 1550090,1550093 -3722810,3721817 z"
     id="path6340" />
  <path
     style="fill:#000000;fill-opacity:1;stroke:none;stroke-width:0;stroke-linecap:butt;stroke-linejoin:miter;stroke-dasharray:none;stroke-opacity:1"
     d="m 126675660,77142578 10480,2143289 h -5998310 v -5964886 l 2224100,529 -250,2291213 3740530,-3740526 1550090,1550093 -3722810,3721817 z"
     id="path6340-3" />
  <path
     style="fill:#000000;fill-opacity:1;stroke:none;stroke-width:0;stroke-linecap:butt;stroke-linejoin:miter;stroke-dasharray:none;stroke-opacity:1"
     d="m 141603820,77142578 10480,2143289 h -5998310 v -5964886 l 2224100,529 -250,2291213 3740530,-3740526 1550090,1550093 -3722810,3721817 z"
     id="path6340-3-7" />
  <path
     style="fill:#000000;fill-opacity:1;stroke:none;stroke-width:0;stroke-linecap:butt;stroke-linejoin:miter;stroke-dasharray:none;stroke-opacity:1"
     d="m 156532000,77142578 10480,2143289 h -5998310 v -5964886 l 2224100,529 -250,2291213 3740530,-3740526 1550090,1550093 -3722810,3721817 z"
     id="path6340-3-7-8" />
  <path
     style="fill:#000000;fill-opacity:1;stroke:none;stroke-width:0;stroke-linecap:butt;stroke-linejoin:miter;stroke-dasharray:none;stroke-opacity:1"
     d="m 171460160,77142578 10480,2143289 h -5998310 v -5964886 l 2224100,529 -250,2291213 3740530,-3740526 1550090,1550093 -3722810,3721817 z"
     id="path6340-3-7-8-7" />
  <path
     style="fill:#000000;fill-opacity:1;stroke:none;stroke-width:0;stroke-linecap:butt;stroke-linejoin:miter;stroke-dasharray:none;stroke-opacity:1"
     d="m 186388320,77142578 10480,2143289 h -5998310 v -5964886 l 2224100,529 -250,2291213 3740530,-3740526 1550090,1550093 -3722810,3721817 z"
     id="path6340-3-7-8-7-1" />
  <path
     style="fill:#000000;fill-opacity:1;stroke:none;stroke-width:0;stroke-linecap:butt;stroke-linejoin:miter;stroke-dasharray:none;stroke-opacity:1"
     d="m 201316520,77142578 10480,2143289 h -5998310 v -5964886 l 2224100,529 -250,2291213 3740530,-3740526 1550090,1550093 -3722810,3721817 z"
     id="path6340-3-7-8-7-1-5" />
  <path
     style="fill:#000000;fill-opacity:1;stroke:none;stroke-width:0;stroke-linecap:butt;stroke-linejoin:miter;stroke-dasharray:none;stroke-opacity:1"
     d="m 216244700,77142578 10480,2143289 h -5998310 v -5964886 l 2224100,529 -250,2291213 3740530,-3740526 1550090,1550093 -3722810,3721817 z"
     id="path6340-3-7-8-7-1-5-5" />
  <path
     style="fill:#000000;fill-opacity:1;stroke:none;stroke-width:0;stroke-linecap:butt;stroke-linejoin:miter;stroke-dasharray:none;stroke-opacity:1"
     d="m 231172860,77142578 10480,2143289 h -5998310 v -5964886 l 2224100,529 -250,2291213 3740530,-3740526 1550090,1550093 -3722810,3721817 z"
     id="path6340-3-7-8-7-1-5-5-8" />
  <path
     style="fill:#000000;fill-opacity:1;stroke:none;stroke-width:0;stroke-linecap:butt;stroke-linejoin:miter;stroke-dasharray:none;stroke-opacity:1"
     d="m 246101030,77142578 10480,2143289 h -5998310 v -5964886 l 2224100,529 -250,2291213 3740530,-3740526 1550090,1550093 -3722810,3721817 z"
     id="path6340-3-7-8-7-1-5-5-8-5" />
  <path
     style="fill:#000000;fill-opacity:1;stroke:none;stroke-width:0;stroke-linecap:butt;stroke-linejoin:miter;stroke-dasharray:none;stroke-opacity:1"
     d="m 261029190,77142578 10480,2143289 h -5998310 v -5964886 l 2224100,529 -250,2291213 3740530,-3740526 1550090,1550093 -3722810,3721817 z"
     id="path6340-3-7-8-7-1-5-5-8-5-6" />
  <path
     style="fill:#000000;fill-opacity:1;stroke:none;stroke-width:0;stroke-linecap:butt;stroke-linejoin:miter;stroke-dasharray:none;stroke-opacity:1"
     d="m 275957350,77142578 10480,2143289 h -5998310 v -5964886 l 2224100,529 -250,2291213 3740530,-3740526 1550090,1550093 -3722810,3721817 z"
     id="path6340-3-7-8-7-1-5-5-8-5-6-7" />
  <path
     style="fill:#000000;fill-opacity:1;stroke:none;stroke-width:0;stroke-linecap:butt;stroke-linejoin:miter;stroke-dasharray:none;stroke-opacity:1"
     d="m 290885590,77132576 10480,2143289 h -5998310 v -5964886 l 2224100,529 -250,2291213 3740530,-3740526 1550090,1550093 -3722810,3721817 z"
     id="path6340-3-7-8-7-1-5-5-8-5-6-9" />
  <path
     style="fill:#000000;fill-opacity:1;stroke:none;stroke-width:0;stroke-linecap:butt;stroke-linejoin:miter;stroke-dasharray:none;stroke-opacity:1"
     d="m 305813740,77142578 10480,2143289 h -5998310 v -5964886 l 2224100,529 -250,2291213 3740530,-3740526 1550090,1550093 -3722810,3721817 z"
     id="path6340-3-7-8-7-1-5-5-8-5-6-9-4" />
  <path
     style="fill:#000000;fill-opacity:1;stroke:none;stroke-width:0;stroke-linecap:butt;stroke-linejoin:miter;stroke-dasharray:none;stroke-opacity:1"
     d="m 320741890,77142578 10480,2143289 h -5998310 v -5964886 l 2224100,529 -250,2291213 3740530,-3740526 1550090,1550093 -3722810,3721817 z"
     id="path6340-3-7-8-7-1-5-5-8-5-6-9-4-1" />
  <path
     style="fill:#000000;fill-opacity:1;stroke:none;stroke-width:0;stroke-linecap:butt;stroke-linejoin:miter;stroke-dasharray:none;stroke-opacity:1"
     d="m 87549458,125856510 10480,2143280 h -5998310 v -5964880 l 2224100,530 -250,2291210 3740530,-3740530 1550090,1550100 -3722810,3721810 z"
     id="path6340-3-7-8-7-1-5-5-8-5-6-9-4-6" />
  <path
     style="fill:#000000;fill-opacity:1;stroke:none;stroke-width:0;stroke-linecap:butt;stroke-linejoin:miter;stroke-dasharray:none;stroke-opacity:1"
     d="m 83704908,142446870 -2143280,10480 v -5998310 h 5964880 l -530,2224100 -2291210,-250 3740530,3740530 -1550100,1550090 -3721810,-3722810 z"
     id="path6340-3-7-8-7-1-5-5-8-5-6-9-4-6-1" />
  <path
     style="fill:#000000;fill-opacity:1;stroke:none;stroke-width:0;stroke-linecap:butt;stroke-linejoin:miter;stroke-dasharray:none;stroke-opacity:1"
     d="m 67114546,138602320 -10480,-2143280 h 5998310 v 5964880 l -2224100,-530 250,-2291210 -3740530,3740530 -1550090,-1550100 3722810,-3721810 z"
     id="path6340-3-7-8-7-1-5-5-8-5-6-9-4-6-1-5" />
  <path
     style="fill:#000000;fill-opacity:1;stroke:none;stroke-width:0;stroke-linecap:butt;stroke-linejoin:miter;stroke-dasharray:none;stroke-opacity:1"
     d="m 70959096,122011960 2143280,-10480 v 5998310 h -5964880 l 530,-2224100 2291210,250 -3740530,-3740530 1550100,-1550090 3721810,3722810 z"
     id="path6340-3-7-8-7-1-5-5-8-5-6-9-4-6-1-7" />
  <path
     style="fill:#000000;fill-opacity:1;stroke:none;stroke-width:0;stroke-linecap:butt;stroke-linejoin:miter;stroke-dasharray:none;stroke-opacity:1"
     d="m 80038690,122250230 1522938,1508110 -4241445,4241450 -4217807,-4217810 1573051,-1572300 1619953,1620310 v -5289910 l 2192165,10 -707,5264140 z"
     id="path6340-3-7-8-7-1-5-5-8-5-6-9-4-6-1-7-9" />
  <path
     style="fill:#000000;fill-opacity:1;stroke:none;stroke-width:0;stroke-linecap:butt;stroke-linejoin:miter;stroke-dasharray:none;stroke-opacity:1"
     d="m 74625318,142208600 -1522940,-1508110 4241440,-4241450 4217810,4217810 -1573050,1572300 -1619950,-1620310 v 5289910 l -2192170,-10 710,-5264140 z"
     id="path6340-3-7-8-7-1-5-5-8-5-6-9-4-6-1-7-9-8" />
  <path
     style="fill:#000000;fill-opacity:1;stroke:none;stroke-width:0;stroke-linecap:butt;stroke-linejoin:miter;stroke-dasharray:none;stroke-opacity:1"
     d="m 87311188,134936100 -1508110,1522940 -4241450,-4241440 4217810,-4217810 1572300,1573050 -1620310,1619950 h 5289910 l -10,2192170 -5264140,-710 z"
     id="path6340-3-7-8-7-1-5-5-8-5-6-9-4-6-1-7-9-0" />
  <path
     style="fill:#000000;fill-opacity:1;stroke:none;stroke-width:0;stroke-linecap:butt;stroke-linejoin:miter;stroke-dasharray:none;stroke-opacity:1"
     d="m 67352816,129522730 1508110,-1522940 4241450,4241440 -4217810,4217810 -1572300,-1573050 1620310,-1619950 h -5289910 l 10,-2192170 5264140,710 z"
     id="path6340-3-7-8-7-1-5-5-8-5-6-9-4-6-1-7-9-0-9" />
  <path
     style="fill:#000000;fill-opacity:1;stroke:none;stroke-width:0;stroke-linecap:butt;stroke-linejoin:miter;stroke-dasharray:none;stroke-opacity:1"
     d="m 44656542,90086697 -10480,-2143280 h 5998310 v 5964880 l -2224100,-530 250,-2291210 -3740530,3740530 -1550090,-1550100 3722810,-3721810 z"
     id="path6340-3-7-8-7-1-5-5-8-5-6-9-4-6-14" />
  <path
     style="fill:#000000;fill-opacity:1;stroke:none;stroke-width:0;stroke-linecap:butt;stroke-linejoin:miter;stroke-dasharray:none;stroke-opacity:1"
     d="m 48400292,105342980 2143280,-10480 v 5998310 h -5964880 l 530,-2224100 2291210,250 -3740530,-3740530 1550100,-1550090 3721810,3722810 z"
     id="path6340-3-7-8-7-1-5-5-8-5-6-9-4-6-1-8" />
  <path
     style="fill:#000000;fill-opacity:1;stroke:none;stroke-width:0;stroke-linecap:butt;stroke-linejoin:miter;stroke-dasharray:none;stroke-opacity:1"
     d="m 33144012,109086730 10480,2143280 h -5998310 v -5964880 l 2224100,530 -250,2291210 3740530,-3740530 1550090,1550100 -3722810,3721810 z"
     id="path6340-3-7-8-7-1-5-5-8-5-6-9-4-6-1-5-8" />
  <path
     style="fill:#000000;fill-opacity:1;stroke:none;stroke-width:0;stroke-linecap:butt;stroke-linejoin:miter;stroke-dasharray:none;stroke-opacity:1"
     d="m 29400262,93830447 -2143280,10480 v -5998310 h 5964880 l -530,2224100 -2291210,-250 3740530,3740530 -1550100,1550090 -3721810,-3722810 z"
     id="path6340-3-7-8-7-1-5-5-8-5-6-9-4-6-1-7-7" />
  <path
     style="fill:#000000;fill-opacity:1;stroke:none;stroke-width:0;stroke-linecap:butt;stroke-linejoin:miter;stroke-dasharray:none;stroke-opacity:1"
     d="m 36193592,91646937 -1522940,-1508110 4241440,-4241450 4217810,4217810 -1573051,1572300 -1619953,-1620310 v 5289910 l -2192166,-10 710,-5264140 z"
     id="path6340-3-7-8-7-1-5-5-8-5-6-9-4-6-1-7-9-1" />
  <path
     style="fill:#000000;fill-opacity:1;stroke:none;stroke-width:0;stroke-linecap:butt;stroke-linejoin:miter;stroke-dasharray:none;stroke-opacity:1"
     d="m 41606963,107526490 1522940,1508110 -4241440,4241450 -4217810,-4217810 1573050,-1572300 1619950,1620310 v -5289910 l 2192170,10 -710,5264140 z"
     id="path6340-3-7-8-7-1-5-5-8-5-6-9-4-6-1-7-9-8-9" />
  <path
     style="fill:#000000;fill-opacity:1;stroke:none;stroke-width:0;stroke-linecap:butt;stroke-linejoin:miter;stroke-dasharray:none;stroke-opacity:1"
     d="m 46840052,96880028 1508111,-1522940 4241450,4241443 -4217810,4217809 -1572301,-1573050 1620311,-1619950 h -5289911 l 10,-2192172 5264141,710 z"
     id="path6340-3-7-8-7-1-5-5-8-5-6-9-4-6-1-7-9-0-3" />
  <path
     style="fill:#000000;fill-opacity:1;stroke:none;stroke-width:0;stroke-linecap:butt;stroke-linejoin:miter;stroke-dasharray:none;stroke-opacity:1"
     d="m 30960503,102293400 -1508111,1522940 -4241450,-4241439 4217810,-4217813 1572301,1573050 -1620311,1619950 h 5289911 l -10,2192172 -5264141,-710 z"
     id="path6340-3-7-8-7-1-5-5-8-5-6-9-4-6-1-7-9-0-9-1" />
  <metadata
     id="metadata14481">
    <rdf:RDF>
      <cc:Work
         rdf:about="">
        <dc:title>SVG Picture created as Inky75-F_Silkscreen.svg date 2023/01/31 23:03:54 </dc:title>
      </cc:Work>
    </rdf:RDF>
  </metadata>
</svg>
