<svg width="304.8mm" height="114.3mm" viewBox="0 0 304.8 114.3" xmlns="http://www.w3.org/2000/svg"><g id="svgGroup" stroke-linecap="round" fill-rule="evenodd" font-size="9pt" stroke="#000" stroke-width="0.25mm" fill="none" style="stroke:#000;stroke-width:0.25mm;fill:none"><path d="M 0 114.3 L 304.8 114.3 L 304.8 0 L 0 0 L 0 114.3 Z M 245.913 59.675 L 258.913 59.675 A 0.5 0.5 0 0 1 259.413 60.175 L 259.413 73.175 A 0.5 0.5 0 0 1 258.913 73.675 L 245.913 73.675 A 0.5 0.5 0 0 1 245.413 73.175 L 245.413 60.175 A 0.5 0.5 0 0 1 245.913 59.675 Z M 22.075 2.525 L 35.075 2.525 A 0.5 0.5 0 0 1 35.575 3.025 L 35.575 16.025 A 0.5 0.5 0 0 1 35.075 16.525 L 22.075 16.525 A 0.5 0.5 0 0 1 21.575 16.025 L 21.575 3.025 A 0.5 0.5 0 0 1 22.075 2.525 Z M 3.025 21.575 L 16.025 21.575 A 0.5 0.5 0 0 1 16.525 22.075 L 16.525 35.075 A 0.5 0.5 0 0 1 16.025 35.575 L 3.025 35.575 A 0.5 0.5 0 0 1 2.525 35.075 L 2.525 22.075 A 0.5 0.5 0 0 1 3.025 21.575 Z M 22.075 21.575 L 35.075 21.575 A 0.5 0.5 0 0 1 35.575 22.075 L 35.575 35.075 A 0.5 0.5 0 0 1 35.075 35.575 L 22.075 35.575 A 0.5 0.5 0 0 1 21.575 35.075 L 21.575 22.075 A 0.5 0.5 0 0 1 22.075 21.575 Z M 41.125 21.575 L 54.125 21.575 A 0.5 0.5 0 0 1 54.625 22.075 L 54.625 35.075 A 0.5 0.5 0 0 1 54.125 35.575 L 41.125 35.575 A 0.5 0.5 0 0 1 40.625 35.075 L 40.625 22.075 A 0.5 0.5 0 0 1 41.125 21.575 Z M 60.175 21.575 L 73.175 21.575 A 0.5 0.5 0 0 1 73.675 22.075 L 73.675 35.075 A 0.5 0.5 0 0 1 73.175 35.575 L 60.175 35.575 A 0.5 0.5 0 0 1 59.675 35.075 L 59.675 22.075 A 0.5 0.5 0 0 1 60.175 21.575 Z M 79.225 21.575 L 92.225 21.575 A 0.5 0.5 0 0 1 92.725 22.075 L 92.725 35.075 A 0.5 0.5 0 0 1 92.225 35.575 L 79.225 35.575 A 0.5 0.5 0 0 1 78.725 35.075 L 78.725 22.075 A 0.5 0.5 0 0 1 79.225 21.575 Z M 98.275 21.575 L 111.275 21.575 A 0.5 0.5 0 0 1 111.775 22.075 L 111.775 35.075 A 0.5 0.5 0 0 1 111.275 35.575 L 98.275 35.575 A 0.5 0.5 0 0 1 97.775 35.075 L 97.775 22.075 A 0.5 0.5 0 0 1 98.275 21.575 Z M 136.375 21.575 L 149.375 21.575 A 0.5 0.5 0 0 1 149.875 22.075 L 149.875 35.075 A 0.5 0.5 0 0 1 149.375 35.575 L 136.375 35.575 A 0.5 0.5 0 0 1 135.875 35.075 L 135.875 22.075 A 0.5 0.5 0 0 1 136.375 21.575 Z M 155.425 21.575 L 168.425 21.575 A 0.5 0.5 0 0 1 168.925 22.075 L 168.925 35.075 A 0.5 0.5 0 0 1 168.425 35.575 L 155.425 35.575 A 0.5 0.5 0 0 1 154.925 35.075 L 154.925 22.075 A 0.5 0.5 0 0 1 155.425 21.575 Z M 174.475 21.575 L 187.475 21.575 A 0.5 0.5 0 0 1 187.975 22.075 L 187.975 35.075 A 0.5 0.5 0 0 1 187.475 35.575 L 174.475 35.575 A 0.5 0.5 0 0 1 173.975 35.075 L 173.975 22.075 A 0.5 0.5 0 0 1 174.475 21.575 Z M 193.525 21.575 L 206.525 21.575 A 0.5 0.5 0 0 1 207.025 22.075 L 207.025 35.075 A 0.5 0.5 0 0 1 206.525 35.575 L 193.525 35.575 A 0.5 0.5 0 0 1 193.025 35.075 L 193.025 22.075 A 0.5 0.5 0 0 1 193.525 21.575 Z M 212.575 21.575 L 225.575 21.575 A 0.5 0.5 0 0 1 226.075 22.075 L 226.075 35.075 A 0.5 0.5 0 0 1 225.575 35.575 L 212.575 35.575 A 0.5 0.5 0 0 1 212.075 35.075 L 212.075 22.075 A 0.5 0.5 0 0 1 212.575 21.575 Z M 231.625 21.575 L 244.625 21.575 A 0.5 0.5 0 0 1 245.125 22.075 L 245.125 35.075 A 0.5 0.5 0 0 1 244.625 35.575 L 231.625 35.575 A 0.5 0.5 0 0 1 231.125 35.075 L 231.125 22.075 A 0.5 0.5 0 0 1 231.625 21.575 Z M 260.2 21.575 L 273.2 21.575 A 0.5 0.5 0 0 1 273.7 22.075 L 273.7 35.075 A 0.5 0.5 0 0 1 273.2 35.575 L 260.2 35.575 A 0.5 0.5 0 0 1 259.7 35.075 L 259.7 22.075 A 0.5 0.5 0 0 1 260.2 21.575 Z M 288.775 21.575 L 301.775 21.575 A 0.5 0.5 0 0 1 302.275 22.075 L 302.275 35.075 A 0.5 0.5 0 0 1 301.775 35.575 L 288.775 35.575 A 0.5 0.5 0 0 1 288.275 35.075 L 288.275 22.075 A 0.5 0.5 0 0 1 288.775 21.575 Z M 7.788 40.625 L 20.788 40.625 A 0.5 0.5 0 0 1 21.288 41.125 L 21.288 54.125 A 0.5 0.5 0 0 1 20.788 54.625 L 7.788 54.625 A 0.5 0.5 0 0 1 7.288 54.125 L 7.288 41.125 A 0.5 0.5 0 0 1 7.788 40.625 Z M 31.6 40.625 L 44.6 40.625 A 0.5 0.5 0 0 1 45.1 41.125 L 45.1 54.125 A 0.5 0.5 0 0 1 44.6 54.625 L 31.6 54.625 A 0.5 0.5 0 0 1 31.1 54.125 L 31.1 41.125 A 0.5 0.5 0 0 1 31.6 40.625 Z M 50.65 40.625 L 63.65 40.625 A 0.5 0.5 0 0 1 64.15 41.125 L 64.15 54.125 A 0.5 0.5 0 0 1 63.65 54.625 L 50.65 54.625 A 0.5 0.5 0 0 1 50.15 54.125 L 50.15 41.125 A 0.5 0.5 0 0 1 50.65 40.625 Z M 69.7 40.625 L 82.7 40.625 A 0.5 0.5 0 0 1 83.2 41.125 L 83.2 54.125 A 0.5 0.5 0 0 1 82.7 54.625 L 69.7 54.625 A 0.5 0.5 0 0 1 69.2 54.125 L 69.2 41.125 A 0.5 0.5 0 0 1 69.7 40.625 Z M 88.75 40.625 L 101.75 40.625 A 0.5 0.5 0 0 1 102.25 41.125 L 102.25 54.125 A 0.5 0.5 0 0 1 101.75 54.625 L 88.75 54.625 A 0.5 0.5 0 0 1 88.25 54.125 L 88.25 41.125 A 0.5 0.5 0 0 1 88.75 40.625 Z M 107.8 40.625 L 120.8 40.625 A 0.5 0.5 0 0 1 121.3 41.125 L 121.3 54.125 A 0.5 0.5 0 0 1 120.8 54.625 L 107.8 54.625 A 0.5 0.5 0 0 1 107.3 54.125 L 107.3 41.125 A 0.5 0.5 0 0 1 107.8 40.625 Z M 126.85 40.625 L 139.85 40.625 A 0.5 0.5 0 0 1 140.35 41.125 L 140.35 54.125 A 0.5 0.5 0 0 1 139.85 54.625 L 126.85 54.625 A 0.5 0.5 0 0 1 126.35 54.125 L 126.35 41.125 A 0.5 0.5 0 0 1 126.85 40.625 Z M 145.9 40.625 L 158.9 40.625 A 0.5 0.5 0 0 1 159.4 41.125 L 159.4 54.125 A 0.5 0.5 0 0 1 158.9 54.625 L 145.9 54.625 A 0.5 0.5 0 0 1 145.4 54.125 L 145.4 41.125 A 0.5 0.5 0 0 1 145.9 40.625 Z M 164.95 40.625 L 177.95 40.625 A 0.5 0.5 0 0 1 178.45 41.125 L 178.45 54.125 A 0.5 0.5 0 0 1 177.95 54.625 L 164.95 54.625 A 0.5 0.5 0 0 1 164.45 54.125 L 164.45 41.125 A 0.5 0.5 0 0 1 164.95 40.625 Z M 184 40.625 L 197 40.625 A 0.5 0.5 0 0 1 197.5 41.125 L 197.5 54.125 A 0.5 0.5 0 0 1 197 54.625 L 184 54.625 A 0.5 0.5 0 0 1 183.5 54.125 L 183.5 41.125 A 0.5 0.5 0 0 1 184 40.625 Z M 203.05 40.625 L 216.05 40.625 A 0.5 0.5 0 0 1 216.55 41.125 L 216.55 54.125 A 0.5 0.5 0 0 1 216.05 54.625 L 203.05 54.625 A 0.5 0.5 0 0 1 202.55 54.125 L 202.55 41.125 A 0.5 0.5 0 0 1 203.05 40.625 Z M 222.1 40.625 L 235.1 40.625 A 0.5 0.5 0 0 1 235.6 41.125 L 235.6 54.125 A 0.5 0.5 0 0 1 235.1 54.625 L 222.1 54.625 A 0.5 0.5 0 0 1 221.6 54.125 L 221.6 41.125 A 0.5 0.5 0 0 1 222.1 40.625 Z M 241.15 40.625 L 254.15 40.625 A 0.5 0.5 0 0 1 254.65 41.125 L 254.65 54.125 A 0.5 0.5 0 0 1 254.15 54.625 L 241.15 54.625 A 0.5 0.5 0 0 1 240.65 54.125 L 240.65 41.125 A 0.5 0.5 0 0 1 241.15 40.625 Z M 280.844 50.65 L 280.844 63.65 A 0.5 0.5 0 0 1 280.344 64.15 L 267.344 64.15 A 0.5 0.5 0 0 1 266.844 63.65 L 266.844 50.65 A 0.5 0.5 0 0 1 267.344 50.15 L 280.344 50.15 A 0.5 0.5 0 0 1 280.844 50.65 Z M 288.775 40.625 L 301.775 40.625 A 0.5 0.5 0 0 1 302.275 41.125 L 302.275 54.125 A 0.5 0.5 0 0 1 301.775 54.625 L 288.775 54.625 A 0.5 0.5 0 0 1 288.275 54.125 L 288.275 41.125 A 0.5 0.5 0 0 1 288.775 40.625 Z M 10.169 59.675 L 23.169 59.675 A 0.5 0.5 0 0 1 23.669 60.175 L 23.669 73.175 A 0.5 0.5 0 0 1 23.169 73.675 L 10.169 73.675 A 0.5 0.5 0 0 1 9.669 73.175 L 9.669 60.175 A 0.5 0.5 0 0 1 10.169 59.675 Z M 5.406 59.675 L 18.406 59.675 A 0.5 0.5 0 0 1 18.906 60.175 L 18.906 73.175 A 0.5 0.5 0 0 1 18.406 73.675 L 5.406 73.675 A 0.5 0.5 0 0 1 4.906 73.175 L 4.906 60.175 A 0.5 0.5 0 0 1 5.406 59.675 Z M 36.363 59.675 L 49.363 59.675 A 0.5 0.5 0 0 1 49.863 60.175 L 49.863 73.175 A 0.5 0.5 0 0 1 49.363 73.675 L 36.363 73.675 A 0.5 0.5 0 0 1 35.863 73.175 L 35.863 60.175 A 0.5 0.5 0 0 1 36.363 59.675 Z M 74.463 59.675 L 87.463 59.675 A 0.5 0.5 0 0 1 87.963 60.175 L 87.963 73.175 A 0.5 0.5 0 0 1 87.463 73.675 L 74.463 73.675 A 0.5 0.5 0 0 1 73.963 73.175 L 73.963 60.175 A 0.5 0.5 0 0 1 74.463 59.675 Z M 93.513 59.675 L 106.513 59.675 A 0.5 0.5 0 0 1 107.013 60.175 L 107.013 73.175 A 0.5 0.5 0 0 1 106.513 73.675 L 93.513 73.675 A 0.5 0.5 0 0 1 93.013 73.175 L 93.013 60.175 A 0.5 0.5 0 0 1 93.513 59.675 Z M 112.563 59.675 L 125.563 59.675 A 0.5 0.5 0 0 1 126.063 60.175 L 126.063 73.175 A 0.5 0.5 0 0 1 125.563 73.675 L 112.563 73.675 A 0.5 0.5 0 0 1 112.063 73.175 L 112.063 60.175 A 0.5 0.5 0 0 1 112.563 59.675 Z M 131.613 59.675 L 144.613 59.675 A 0.5 0.5 0 0 1 145.113 60.175 L 145.113 73.175 A 0.5 0.5 0 0 1 144.613 73.675 L 131.613 73.675 A 0.5 0.5 0 0 1 131.113 73.175 L 131.113 60.175 A 0.5 0.5 0 0 1 131.613 59.675 Z M 150.663 59.675 L 163.663 59.675 A 0.5 0.5 0 0 1 164.163 60.175 L 164.163 73.175 A 0.5 0.5 0 0 1 163.663 73.675 L 150.663 73.675 A 0.5 0.5 0 0 1 150.163 73.175 L 150.163 60.175 A 0.5 0.5 0 0 1 150.663 59.675 Z M 169.713 59.675 L 182.713 59.675 A 0.5 0.5 0 0 1 183.213 60.175 L 183.213 73.175 A 0.5 0.5 0 0 1 182.713 73.675 L 169.713 73.675 A 0.5 0.5 0 0 1 169.213 73.175 L 169.213 60.175 A 0.5 0.5 0 0 1 169.713 59.675 Z M 188.763 59.675 L 201.763 59.675 A 0.5 0.5 0 0 1 202.263 60.175 L 202.263 73.175 A 0.5 0.5 0 0 1 201.763 73.675 L 188.763 73.675 A 0.5 0.5 0 0 1 188.263 73.175 L 188.263 60.175 A 0.5 0.5 0 0 1 188.763 59.675 Z M 207.813 59.675 L 220.813 59.675 A 0.5 0.5 0 0 1 221.313 60.175 L 221.313 73.175 A 0.5 0.5 0 0 1 220.813 73.675 L 207.813 73.675 A 0.5 0.5 0 0 1 207.313 73.175 L 207.313 60.175 A 0.5 0.5 0 0 1 207.813 59.675 Z M 226.863 59.675 L 239.863 59.675 A 0.5 0.5 0 0 1 240.363 60.175 L 240.363 73.175 A 0.5 0.5 0 0 1 239.863 73.675 L 226.863 73.675 A 0.5 0.5 0 0 1 226.363 73.175 L 226.363 60.175 A 0.5 0.5 0 0 1 226.863 59.675 Z M 288.775 59.675 L 301.775 59.675 A 0.5 0.5 0 0 1 302.275 60.175 L 302.275 73.175 A 0.5 0.5 0 0 1 301.775 73.675 L 288.775 73.675 A 0.5 0.5 0 0 1 288.275 73.175 L 288.275 60.175 A 0.5 0.5 0 0 1 288.775 59.675 Z M 14.931 78.725 L 27.931 78.725 A 0.5 0.5 0 0 1 28.431 79.225 L 28.431 92.225 A 0.5 0.5 0 0 1 27.931 92.725 L 14.931 92.725 A 0.5 0.5 0 0 1 14.431 92.225 L 14.431 79.225 A 0.5 0.5 0 0 1 14.931 78.725 Z M 45.888 78.725 L 58.888 78.725 A 0.5 0.5 0 0 1 59.388 79.225 L 59.388 92.225 A 0.5 0.5 0 0 1 58.888 92.725 L 45.888 92.725 A 0.5 0.5 0 0 1 45.388 92.225 L 45.388 79.225 A 0.5 0.5 0 0 1 45.888 78.725 Z M 64.938 78.725 L 77.938 78.725 A 0.5 0.5 0 0 1 78.438 79.225 L 78.438 92.225 A 0.5 0.5 0 0 1 77.938 92.725 L 64.938 92.725 A 0.5 0.5 0 0 1 64.438 92.225 L 64.438 79.225 A 0.5 0.5 0 0 1 64.938 78.725 Z M 83.988 78.725 L 96.988 78.725 A 0.5 0.5 0 0 1 97.488 79.225 L 97.488 92.225 A 0.5 0.5 0 0 1 96.988 92.725 L 83.988 92.725 A 0.5 0.5 0 0 1 83.488 92.225 L 83.488 79.225 A 0.5 0.5 0 0 1 83.988 78.725 Z M 103.038 78.725 L 116.038 78.725 A 0.5 0.5 0 0 1 116.538 79.225 L 116.538 92.225 A 0.5 0.5 0 0 1 116.038 92.725 L 103.038 92.725 A 0.5 0.5 0 0 1 102.538 92.225 L 102.538 79.225 A 0.5 0.5 0 0 1 103.038 78.725 Z M 122.088 78.725 L 135.088 78.725 A 0.5 0.5 0 0 1 135.588 79.225 L 135.588 92.225 A 0.5 0.5 0 0 1 135.088 92.725 L 122.088 92.725 A 0.5 0.5 0 0 1 121.588 92.225 L 121.588 79.225 A 0.5 0.5 0 0 1 122.088 78.725 Z M 141.138 78.725 L 154.138 78.725 A 0.5 0.5 0 0 1 154.638 79.225 L 154.638 92.225 A 0.5 0.5 0 0 1 154.138 92.725 L 141.138 92.725 A 0.5 0.5 0 0 1 140.638 92.225 L 140.638 79.225 A 0.5 0.5 0 0 1 141.138 78.725 Z M 160.188 78.725 L 173.188 78.725 A 0.5 0.5 0 0 1 173.688 79.225 L 173.688 92.225 A 0.5 0.5 0 0 1 173.188 92.725 L 160.188 92.725 A 0.5 0.5 0 0 1 159.688 92.225 L 159.688 79.225 A 0.5 0.5 0 0 1 160.188 78.725 Z M 179.238 78.725 L 192.238 78.725 A 0.5 0.5 0 0 1 192.738 79.225 L 192.738 92.225 A 0.5 0.5 0 0 1 192.238 92.725 L 179.238 92.725 A 0.5 0.5 0 0 1 178.738 92.225 L 178.738 79.225 A 0.5 0.5 0 0 1 179.238 78.725 Z M 198.288 78.725 L 211.288 78.725 A 0.5 0.5 0 0 1 211.788 79.225 L 211.788 92.225 A 0.5 0.5 0 0 1 211.288 92.725 L 198.288 92.725 A 0.5 0.5 0 0 1 197.788 92.225 L 197.788 79.225 A 0.5 0.5 0 0 1 198.288 78.725 Z M 217.338 78.725 L 230.338 78.725 A 0.5 0.5 0 0 1 230.838 79.225 L 230.838 92.225 A 0.5 0.5 0 0 1 230.338 92.725 L 217.338 92.725 A 0.5 0.5 0 0 1 216.838 92.225 L 216.838 79.225 A 0.5 0.5 0 0 1 217.338 78.725 Z M 243.531 78.725 L 256.531 78.725 A 0.5 0.5 0 0 1 257.031 79.225 L 257.031 92.225 A 0.5 0.5 0 0 1 256.531 92.725 L 243.531 92.725 A 0.5 0.5 0 0 1 243.031 92.225 L 243.031 79.225 A 0.5 0.5 0 0 1 243.531 78.725 Z M 269.725 78.725 L 282.725 78.725 A 0.5 0.5 0 0 1 283.225 79.225 L 283.225 92.225 A 0.5 0.5 0 0 1 282.725 92.725 L 269.725 92.725 A 0.5 0.5 0 0 1 269.225 92.225 L 269.225 79.225 A 0.5 0.5 0 0 1 269.725 78.725 Z M 288.775 78.725 L 301.775 78.725 A 0.5 0.5 0 0 1 302.275 79.225 L 302.275 92.225 A 0.5 0.5 0 0 1 301.775 92.725 L 288.775 92.725 A 0.5 0.5 0 0 1 288.275 92.225 L 288.275 79.225 A 0.5 0.5 0 0 1 288.775 78.725 Z M 5.406 97.775 L 18.406 97.775 A 0.5 0.5 0 0 1 18.906 98.275 L 18.906 111.275 A 0.5 0.5 0 0 1 18.406 111.775 L 5.406 111.775 A 0.5 0.5 0 0 1 4.906 111.275 L 4.906 98.275 A 0.5 0.5 0 0 1 5.406 97.775 Z M 7.788 97.775 L 20.788 97.775 A 0.5 0.5 0 0 1 21.288 98.275 L 21.288 111.275 A 0.5 0.5 0 0 1 20.788 111.775 L 7.788 111.775 A 0.5 0.5 0 0 1 7.288 111.275 L 7.288 98.275 A 0.5 0.5 0 0 1 7.788 97.775 Z M 29.219 97.775 L 42.219 97.775 A 0.5 0.5 0 0 1 42.719 98.275 L 42.719 111.275 A 0.5 0.5 0 0 1 42.219 111.775 L 29.219 111.775 A 0.5 0.5 0 0 1 28.719 111.275 L 28.719 98.275 A 0.5 0.5 0 0 1 29.219 97.775 Z M 36.363 97.775 L 49.363 97.775 A 0.5 0.5 0 0 1 49.863 98.275 L 49.863 111.275 A 0.5 0.5 0 0 1 49.363 111.775 L 36.363 111.775 A 0.5 0.5 0 0 1 35.863 111.275 L 35.863 98.275 A 0.5 0.5 0 0 1 36.363 97.775 Z M 64.938 97.775 L 77.938 97.775 A 0.5 0.5 0 0 1 78.438 98.275 L 78.438 111.275 A 0.5 0.5 0 0 1 77.938 111.775 L 64.938 111.775 A 0.5 0.5 0 0 1 64.438 111.275 L 64.438 98.275 A 0.5 0.5 0 0 1 64.938 97.775 Z M 98.275 97.775 L 111.275 97.775 A 0.5 0.5 0 0 1 111.775 98.275 L 111.775 111.275 A 0.5 0.5 0 0 1 111.275 111.775 L 98.275 111.775 A 0.5 0.5 0 0 1 97.775 111.275 L 97.775 98.275 A 0.5 0.5 0 0 1 98.275 97.775 Z M 111.275 97.775 L 98.275 97.775 A 0.5 0.5 0 0 0 97.775 98.275 L 97.775 111.275 A 0.5 0.5 0 0 0 98.275 111.775 L 111.275 111.775 A 0.5 0.5 0 0 0 111.775 111.275 L 111.775 98.275 A 0.5 0.5 0 0 0 111.275 97.775 Z M 126.85 97.775 L 139.85 97.775 A 0.5 0.5 0 0 1 140.35 98.275 L 140.35 111.275 A 0.5 0.5 0 0 1 139.85 111.775 L 126.85 111.775 A 0.5 0.5 0 0 1 126.35 111.275 L 126.35 98.275 A 0.5 0.5 0 0 1 126.85 97.775 Z M 105.419 97.775 L 118.419 97.775 A 0.5 0.5 0 0 1 118.919 98.275 L 118.919 111.275 A 0.5 0.5 0 0 1 118.419 111.775 L 105.419 111.775 A 0.5 0.5 0 0 1 104.919 111.275 L 104.919 98.275 A 0.5 0.5 0 0 1 105.419 97.775 Z M 155.425 97.775 L 168.425 97.775 A 0.5 0.5 0 0 1 168.925 98.275 L 168.925 111.275 A 0.5 0.5 0 0 1 168.425 111.775 L 155.425 111.775 A 0.5 0.5 0 0 1 154.925 111.275 L 154.925 98.275 A 0.5 0.5 0 0 1 155.425 97.775 Z M 157.806 97.775 L 170.806 97.775 A 0.5 0.5 0 0 1 171.306 98.275 L 171.306 111.275 A 0.5 0.5 0 0 1 170.806 111.775 L 157.806 111.775 A 0.5 0.5 0 0 1 157.306 111.275 L 157.306 98.275 A 0.5 0.5 0 0 1 157.806 97.775 Z M 198.288 97.775 L 211.288 97.775 A 0.5 0.5 0 0 1 211.788 98.275 L 211.788 111.275 A 0.5 0.5 0 0 1 211.288 111.775 L 198.288 111.775 A 0.5 0.5 0 0 1 197.788 111.275 L 197.788 98.275 A 0.5 0.5 0 0 1 198.288 97.775 Z M 226.863 97.775 L 239.863 97.775 A 0.5 0.5 0 0 1 240.363 98.275 L 240.363 111.275 A 0.5 0.5 0 0 1 239.863 111.775 L 226.863 111.775 A 0.5 0.5 0 0 1 226.363 111.275 L 226.363 98.275 A 0.5 0.5 0 0 1 226.863 97.775 Z M 250.675 97.775 L 263.675 97.775 A 0.5 0.5 0 0 1 264.175 98.275 L 264.175 111.275 A 0.5 0.5 0 0 1 263.675 111.775 L 250.675 111.775 A 0.5 0.5 0 0 1 250.175 111.275 L 250.175 98.275 A 0.5 0.5 0 0 1 250.675 97.775 Z M 269.725 97.775 L 282.725 97.775 A 0.5 0.5 0 0 1 283.225 98.275 L 283.225 111.275 A 0.5 0.5 0 0 1 282.725 111.775 L 269.725 111.775 A 0.5 0.5 0 0 1 269.225 111.275 L 269.225 98.275 A 0.5 0.5 0 0 1 269.725 97.775 Z M 288.775 97.775 L 301.775 97.775 A 0.5 0.5 0 0 1 302.275 98.275 L 302.275 111.275 A 0.5 0.5 0 0 1 301.775 111.775 L 288.775 111.775 A 0.5 0.5 0 0 1 288.275 111.275 L 288.275 98.275 A 0.5 0.5 0 0 1 288.775 97.775 Z M 3.025 2.525 L 16.025 2.525 A 0.5 0.5 0 0 1 16.525 3.025 L 16.525 16.025 A 0.5 0.5 0 0 1 16.025 16.525 L 3.025 16.525 A 0.5 0.5 0 0 1 2.525 16.025 L 2.525 3.025 A 0.5 0.5 0 0 1 3.025 2.525 Z M 41.125 2.525 L 54.125 2.525 A 0.5 0.5 0 0 1 54.625 3.025 L 54.625 16.025 A 0.5 0.5 0 0 1 54.125 16.525 L 41.125 16.525 A 0.5 0.5 0 0 1 40.625 16.025 L 40.625 3.025 A 0.5 0.5 0 0 1 41.125 2.525 Z M 60.175 2.525 L 73.175 2.525 A 0.5 0.5 0 0 1 73.675 3.025 L 73.675 16.025 A 0.5 0.5 0 0 1 73.175 16.525 L 60.175 16.525 A 0.5 0.5 0 0 1 59.675 16.025 L 59.675 3.025 A 0.5 0.5 0 0 1 60.175 2.525 Z M 79.225 2.525 L 92.225 2.525 A 0.5 0.5 0 0 1 92.725 3.025 L 92.725 16.025 A 0.5 0.5 0 0 1 92.225 16.525 L 79.225 16.525 A 0.5 0.5 0 0 1 78.725 16.025 L 78.725 3.025 A 0.5 0.5 0 0 1 79.225 2.525 Z M 98.275 2.525 L 111.275 2.525 A 0.5 0.5 0 0 1 111.775 3.025 L 111.775 16.025 A 0.5 0.5 0 0 1 111.275 16.525 L 98.275 16.525 A 0.5 0.5 0 0 1 97.775 16.025 L 97.775 3.025 A 0.5 0.5 0 0 1 98.275 2.525 Z M 136.375 2.525 L 149.375 2.525 A 0.5 0.5 0 0 1 149.875 3.025 L 149.875 16.025 A 0.5 0.5 0 0 1 149.375 16.525 L 136.375 16.525 A 0.5 0.5 0 0 1 135.875 16.025 L 135.875 3.025 A 0.5 0.5 0 0 1 136.375 2.525 Z M 155.425 2.525 L 168.425 2.525 A 0.5 0.5 0 0 1 168.925 3.025 L 168.925 16.025 A 0.5 0.5 0 0 1 168.425 16.525 L 155.425 16.525 A 0.5 0.5 0 0 1 154.925 16.025 L 154.925 3.025 A 0.5 0.5 0 0 1 155.425 2.525 Z M 174.475 2.525 L 187.475 2.525 A 0.5 0.5 0 0 1 187.975 3.025 L 187.975 16.025 A 0.5 0.5 0 0 1 187.475 16.525 L 174.475 16.525 A 0.5 0.5 0 0 1 173.975 16.025 L 173.975 3.025 A 0.5 0.5 0 0 1 174.475 2.525 Z M 193.525 2.525 L 206.525 2.525 A 0.5 0.5 0 0 1 207.025 3.025 L 207.025 16.025 A 0.5 0.5 0 0 1 206.525 16.525 L 193.525 16.525 A 0.5 0.5 0 0 1 193.025 16.025 L 193.025 3.025 A 0.5 0.5 0 0 1 193.525 2.525 Z M 212.575 2.525 L 225.575 2.525 A 0.5 0.5 0 0 1 226.075 3.025 L 226.075 16.025 A 0.5 0.5 0 0 1 225.575 16.525 L 212.575 16.525 A 0.5 0.5 0 0 1 212.075 16.025 L 212.075 3.025 A 0.5 0.5 0 0 1 212.575 2.525 Z M 231.625 2.525 L 244.625 2.525 A 0.5 0.5 0 0 1 245.125 3.025 L 245.125 16.025 A 0.5 0.5 0 0 1 244.625 16.525 L 231.625 16.525 A 0.5 0.5 0 0 1 231.125 16.025 L 231.125 3.025 A 0.5 0.5 0 0 1 231.625 2.525 Z M 250.675 2.525 L 263.675 2.525 A 0.5 0.5 0 0 1 264.175 3.025 L 264.175 16.025 A 0.5 0.5 0 0 1 263.675 16.525 L 250.675 16.525 A 0.5 0.5 0 0 1 250.175 16.025 L 250.175 3.025 A 0.5 0.5 0 0 1 250.675 2.525 Z M 269.725 2.525 L 282.725 2.525 A 0.5 0.5 0 0 1 283.225 3.025 L 283.225 16.025 A 0.5 0.5 0 0 1 282.725 16.525 L 269.725 16.525 A 0.5 0.5 0 0 1 269.225 16.025 L 269.225 3.025 A 0.5 0.5 0 0 1 269.725 2.525 Z M 288.775 2.525 L 301.775 2.525 A 0.5 0.5 0 0 1 302.275 3.025 L 302.275 16.025 A 0.5 0.5 0 0 1 301.775 16.525 L 288.775 16.525 A 0.5 0.5 0 0 1 288.275 16.025 L 288.275 3.025 A 0.5 0.5 0 0 1 288.775 2.525 Z M 55.413 59.675 L 68.413 59.675 A 0.5 0.5 0 0 1 68.913 60.175 L 68.913 73.175 A 0.5 0.5 0 0 1 68.413 73.675 L 55.413 73.675 A 0.5 0.5 0 0 1 54.913 73.175 L 54.913 60.175 A 0.5 0.5 0 0 1 55.413 59.675 Z M 55.413 97.775 L 68.413 97.775 A 0.5 0.5 0 0 1 68.913 98.275 L 68.913 111.275 A 0.5 0.5 0 0 1 68.413 111.775 L 55.413 111.775 A 0.5 0.5 0 0 1 54.913 111.275 L 54.913 98.275 A 0.5 0.5 0 0 1 55.413 97.775 Z M 117.325 21.575 L 130.325 21.575 A 0.5 0.5 0 0 1 130.825 22.075 L 130.825 35.075 A 0.5 0.5 0 0 1 130.325 35.575 L 117.325 35.575 A 0.5 0.5 0 0 1 116.825 35.075 L 116.825 22.075 A 0.5 0.5 0 0 1 117.325 21.575 Z M 117.325 2.525 L 130.325 2.525 A 0.5 0.5 0 0 1 130.825 3.025 L 130.825 16.025 A 0.5 0.5 0 0 1 130.325 16.525 L 117.325 16.525 A 0.5 0.5 0 0 1 116.825 16.025 L 116.825 3.025 A 0.5 0.5 0 0 1 117.325 2.525 Z M 251.762 22.575 L 257.762 22.575 A 0.5 0.5 0 0 1 258.262 23.075 L 258.262 37.075 A 0.5 0.5 0 0 1 257.762 37.575 L 251.762 37.575 A 0.5 0.5 0 0 1 251.262 37.075 L 251.262 23.075 A 0.5 0.5 0 0 1 251.762 22.575 Z M 275.638 22.575 L 281.638 22.575 A 0.5 0.5 0 0 1 282.138 23.075 L 282.138 37.075 A 0.5 0.5 0 0 1 281.638 37.575 L 275.638 37.575 A 0.5 0.5 0 0 1 275.138 37.075 L 275.138 23.075 A 0.5 0.5 0 0 1 275.638 22.575 Z M 279.844 42.212 L 279.844 48.212 A 0.5 0.5 0 0 1 279.344 48.712 L 265.344 48.712 A 0.5 0.5 0 0 1 264.844 48.212 L 264.844 42.212 A 0.5 0.5 0 0 1 265.344 41.712 L 279.344 41.712 A 0.5 0.5 0 0 1 279.844 42.212 Z M 279.844 66.088 L 279.844 72.088 A 0.5 0.5 0 0 1 279.344 72.588 L 265.344 72.588 A 0.5 0.5 0 0 1 264.844 72.088 L 264.844 66.088 A 0.5 0.5 0 0 1 265.344 65.588 L 279.344 65.588 A 0.5 0.5 0 0 1 279.844 66.088 Z M 6.493 79.725 L 12.493 79.725 A 0.5 0.5 0 0 1 12.993 80.225 L 12.993 94.225 A 0.5 0.5 0 0 1 12.493 94.725 L 6.493 94.725 A 0.5 0.5 0 0 1 5.993 94.225 L 5.993 80.225 A 0.5 0.5 0 0 1 6.493 79.725 Z M 30.369 79.725 L 36.369 79.725 A 0.5 0.5 0 0 1 36.869 80.225 L 36.869 94.225 A 0.5 0.5 0 0 1 36.369 94.725 L 30.369 94.725 A 0.5 0.5 0 0 1 29.869 94.225 L 29.869 80.225 A 0.5 0.5 0 0 1 30.369 79.725 Z M 82.725 98.775 L 88.725 98.775 A 0.5 0.5 0 0 1 89.225 99.275 L 89.225 113.275 A 0.5 0.5 0 0 1 88.725 113.775 L 82.725 113.775 A 0.5 0.5 0 0 1 82.225 113.275 L 82.225 99.275 A 0.5 0.5 0 0 1 82.725 98.775 Z M 88.725 98.775 L 82.725 98.775 A 0.5 0.5 0 0 0 82.225 99.275 L 82.225 113.275 A 0.5 0.5 0 0 0 82.725 113.775 L 88.725 113.775 A 0.5 0.5 0 0 0 89.225 113.275 L 89.225 99.275 A 0.5 0.5 0 0 0 88.725 98.775 Z M 120.825 98.775 L 126.825 98.775 A 0.5 0.5 0 0 1 127.325 99.275 L 127.325 113.275 A 0.5 0.5 0 0 1 126.825 113.775 L 120.825 113.775 A 0.5 0.5 0 0 1 120.325 113.275 L 120.325 99.275 A 0.5 0.5 0 0 1 120.825 98.775 Z M 126.825 98.775 L 120.825 98.775 A 0.5 0.5 0 0 0 120.325 99.275 L 120.325 113.275 A 0.5 0.5 0 0 0 120.825 113.775 L 126.825 113.775 A 0.5 0.5 0 0 0 127.325 113.275 L 127.325 99.275 A 0.5 0.5 0 0 0 126.825 98.775 Z M 82.725 98.775 L 88.725 98.775 A 0.5 0.5 0 0 1 89.225 99.275 L 89.225 113.275 A 0.5 0.5 0 0 1 88.725 113.775 L 82.725 113.775 A 0.5 0.5 0 0 1 82.225 113.275 L 82.225 99.275 A 0.5 0.5 0 0 1 82.725 98.775 Z M 177.975 98.775 L 183.975 98.775 A 0.5 0.5 0 0 1 184.475 99.275 L 184.475 113.275 A 0.5 0.5 0 0 1 183.975 113.775 L 177.975 113.775 A 0.5 0.5 0 0 1 177.475 113.275 L 177.475 99.275 A 0.5 0.5 0 0 1 177.975 98.775 Z M 96.981 98.775 L 102.981 98.775 A 0.5 0.5 0 0 1 103.481 99.275 L 103.481 113.275 A 0.5 0.5 0 0 1 102.981 113.775 L 96.981 113.775 A 0.5 0.5 0 0 1 96.481 113.275 L 96.481 99.275 A 0.5 0.5 0 0 1 96.981 98.775 Z M 120.857 98.775 L 126.857 98.775 A 0.5 0.5 0 0 1 127.357 99.275 L 127.357 113.275 A 0.5 0.5 0 0 1 126.857 113.775 L 120.857 113.775 A 0.5 0.5 0 0 1 120.357 113.275 L 120.357 99.275 A 0.5 0.5 0 0 1 120.857 98.775 Z M 139.875 98.775 L 145.875 98.775 A 0.5 0.5 0 0 1 146.375 99.275 L 146.375 113.275 A 0.5 0.5 0 0 1 145.875 113.775 L 139.875 113.775 A 0.5 0.5 0 0 1 139.375 113.275 L 139.375 99.275 A 0.5 0.5 0 0 1 139.875 98.775 Z M 177.975 98.775 L 183.975 98.775 A 0.5 0.5 0 0 1 184.475 99.275 L 184.475 113.275 A 0.5 0.5 0 0 1 183.975 113.775 L 177.975 113.775 A 0.5 0.5 0 0 1 177.475 113.275 L 177.475 99.275 A 0.5 0.5 0 0 1 177.975 98.775 Z M 149.368 98.775 L 155.368 98.775 A 0.5 0.5 0 0 1 155.868 99.275 L 155.868 113.275 A 0.5 0.5 0 0 1 155.368 113.775 L 149.368 113.775 A 0.5 0.5 0 0 1 148.868 113.275 L 148.868 99.275 A 0.5 0.5 0 0 1 149.368 98.775 Z M 173.244 98.775 L 179.244 98.775 A 0.5 0.5 0 0 1 179.744 99.275 L 179.744 113.275 A 0.5 0.5 0 0 1 179.244 113.775 L 173.244 113.775 A 0.5 0.5 0 0 1 172.744 113.275 L 172.744 99.275 A 0.5 0.5 0 0 1 173.244 98.775 Z" vector-effect="non-scaling-stroke"/></g></svg>